<?xml version="1.0" standalone="no"?>
<!DOCTYPE svg PUBLIC "-//W3C//DTD SVG 20010904//EN"
 "http://www.w3.org/TR/2001/REC-SVG-20010904/DTD/svg10.dtd">
<svg version="1.0" xmlns="http://www.w3.org/2000/svg"
 width="64.000000pt" height="64.000000pt" viewBox="0 0 64.000000 64.000000"
 preserveAspectRatio="xMidYMid meet">
<metadata>
Created by potrace 1.16, written by Peter Selinger 2001-2019
</metadata>
<g transform="translate(0.000000,64.000000) scale(0.100000,-0.100000)"
fill="#000000" stroke="none">
<path d="M259 493 c-34 -87 -129 -356 -129 -364 0 -5 20 -9 43 -9 l44 0 50
138 50 137 47 3 c53 4 54 7 21 85 -15 36 -17 37 -65 37 -46 0 -51 -3 -61 -27z"/>
<path d="M345 338 c-2 -7 -20 -55 -40 -106 -19 -52 -35 -98 -35 -103 0 -5 17
-9 39 -9 36 0 39 3 55 43 9 23 16 48 16 55 0 30 18 7 34 -43 17 -54 17 -55 57
-55 25 0 39 5 39 13 -1 6 -18 57 -39 112 l-38 100 -42 3 c-27 2 -43 -1 -46
-10z"/>
</g>
</svg>
